<?xml version="1.0" encoding="UTF-8"?>
<svg width="134px" height="19px" viewBox="0 0 134 19" version="1.1" xmlns="http://www.w3.org/2000/svg" xmlns:xlink="http://www.w3.org/1999/xlink">
    <!-- Generator: Sketch 48.2 (47327) - http://www.bohemiancoding.com/sketch -->
    <title>Page 1</title>
    <desc>Created with Sketch.</desc>
    <defs>
        <path d="M1.956,0.897 L0.997,0.897 L0.997,18.556 L2.137,18.556 L2.137,15.814 C3.694,17.931 5.457,18.897 7.796,18.897 C11.663,18.897 14.691,15.773 14.691,11.784 C14.691,7.797 11.737,4.79 7.82,4.79 C5.439,4.79 3.579,5.829 2.137,7.933 L2.137,0.897 L1.956,0.897 Z M2.137,11.977 C2.137,8.518 4.644,5.808 7.845,5.808 C11.032,5.808 13.528,8.465 13.528,11.856 C13.528,15.177 10.924,17.88 7.723,17.88 C4.747,17.88 2.137,15.121 2.137,11.977 Z" id="path-1"></path>
        <path d="M0.724,7.856 C0.724,9.605 1.479,11.506 2.694,12.82 C3.993,14.218 5.621,14.897 7.668,14.897 C10.692,14.897 13.023,13.231 14.067,10.325 L14.154,10.084 L12.954,10.084 L12.904,10.19 C11.816,12.606 10.03,13.831 7.595,13.831 C4.327,13.831 1.864,11.252 1.864,7.832 C1.864,4.369 4.349,1.759 7.644,1.759 C10.052,1.759 11.871,3.001 12.904,5.35 L12.951,5.457 L14.189,5.457 L14.088,5.21 C12.921,2.329 10.642,0.741 7.668,0.741 C3.775,0.741 0.724,3.866 0.724,7.856 Z" id="path-3"></path>
        <path d="M10.179,3.905 C9.379,1.962 7.773,0.888 5.591,0.888 C3.958,0.888 2.71,1.597 1.757,2.97 L1.757,1.131 L0.57,1.131 L0.57,14.556 L1.709,14.556 L1.709,7.637 C1.709,6.117 1.709,4.916 2.387,3.815 C3.171,2.58 4.227,1.979 5.616,1.979 C8.225,1.979 9.549,3.809 9.549,7.418 L9.549,14.556 L10.687,14.556 L10.687,7.637 C10.687,6.117 10.687,4.916 11.366,3.815 C12.15,2.58 13.206,1.979 14.593,1.979 C17.204,1.979 18.526,3.809 18.526,7.418 L18.526,14.556 L19.665,14.556 L19.665,6.882 C19.665,3.185 17.712,0.888 14.57,0.888 C12.605,0.888 11.098,1.937 10.179,3.905 Z" id="path-5"></path>
        <path d="M0.754,3.492 C0.754,4.929 1.921,6.094 3.358,6.094 C4.795,6.094 5.961,4.929 5.961,3.492 C5.961,2.055 4.795,0.888 3.358,0.888 C1.921,0.888 0.754,2.055 0.754,3.492 Z" id="path-7"></path>
        <path d="M0.754,3.295 C0.754,4.733 1.921,5.897 3.358,5.897 C4.795,5.897 5.961,4.733 5.961,3.295 C5.961,1.858 4.795,0.693 3.358,0.693 C1.921,0.693 0.754,1.858 0.754,3.295 Z" id="path-9"></path>
    </defs>
    <g id="home-v1" stroke="none" stroke-width="1" fill="none" fill-rule="evenodd" transform="translate(-445.000000, -49.000000)">
        <g id="Page-1" transform="translate(445.000000, 48.000000)">
            <g id="Group-3" transform="translate(0.000000, 0.524000)">
                <mask id="mask-2" fill="white">
                    <use xlink:href="#path-1"></use>
                </mask>
                <g id="Clip-2"></g>
                <polygon id="Fill-1" fill="#FEFEFE" mask="url(#mask-2)" points="-3.076 22.97 18.763 22.97 18.763 -3.175 -3.076 -3.175"></polygon>
            </g>
            <g id="Group-6" transform="translate(15.000000, 4.524000)">
                <mask id="mask-4" fill="white">
                    <use xlink:href="#path-3"></use>
                </mask>
                <g id="Clip-5"></g>
                <polygon id="Fill-4" fill="#FEFEFE" mask="url(#mask-4)" points="-3.348 18.97 18.261 18.97 18.261 -3.331 -3.348 -3.331"></polygon>
            </g>
            <g id="Group-9" transform="translate(30.000000, 4.524000)">
                <mask id="mask-6" fill="white">
                    <use xlink:href="#path-5"></use>
                </mask>
                <g id="Clip-8"></g>
                <polygon id="Fill-7" fill="#FEFEFE" mask="url(#mask-6)" points="-3.502 18.629 23.737 18.629 23.737 -3.184 -3.502 -3.184"></polygon>
            </g>
            <g id="Group-12" transform="translate(53.000000, 4.524000)">
                <mask id="mask-8" fill="white">
                    <use xlink:href="#path-7"></use>
                </mask>
                <g id="Clip-11"></g>
                <polygon id="Fill-10" fill="#FEFEFE" mask="url(#mask-8)" points="-3.318 10.167 10.033 10.167 10.033 -3.184 -3.318 -3.184"></polygon>
            </g>
            <g id="Group-15" transform="translate(53.000000, 13.524000)">
                <mask id="mask-10" fill="white">
                    <use xlink:href="#path-9"></use>
                </mask>
                <g id="Clip-14"></g>
                <polygon id="Fill-13" fill="#FEFEFE" mask="url(#mask-10)" points="-3.318 9.97 10.033 9.97 10.033 -3.379 -3.318 -3.379"></polygon>
            </g>
            <g id="Group-28" transform="translate(66.000000, 1.524000)" fill="#FFFFFF">
                <path d="M1.7856,14.0438 C1.7856,14.0438 3.3036,15.6148 5.6466,15.6148 C6.7646,15.6148 7.8846,15.0298 7.8846,13.9378 C7.8846,11.4608 0.9596,11.9668 0.9596,7.5718 C0.9596,5.1218 3.1426,3.7368 5.8336,3.7368 C8.7896,3.7368 10.1746,5.2288 10.1746,5.2288 L9.1356,7.1728 C9.1356,7.1728 7.9376,5.9748 5.8066,5.9748 C4.6886,5.9748 3.5966,6.4538 3.5966,7.6258 C3.5966,10.0488 10.5206,9.5168 10.5206,13.9378 C10.5206,16.1748 8.6026,17.8528 5.6466,17.8528 C2.3446,17.8528 0.5336,15.8818 0.5336,15.8818 L1.7856,14.0438 Z" id="Fill-16"></path>
                <path d="M13.3442,6.3201 L11.5862,6.3201 L11.5862,4.2431 L13.4232,4.2431 L13.4232,0.3541 L15.9272,0.3541 L15.9272,4.2431 L19.1762,4.2431 L19.1762,6.3201 L15.9272,6.3201 L15.9272,12.3131 C15.9272,15.0031 17.8182,15.3491 18.8032,15.3491 C19.1762,15.3491 19.4162,15.2961 19.4162,15.2961 L19.4162,17.5861 C19.4162,17.5861 19.0432,17.6391 18.5112,17.6391 C16.7802,17.6391 13.3442,17.1071 13.3442,12.6061 L13.3442,6.3201 Z" id="Fill-18"></path>
                <path d="M26.2368,15.7752 C28.4208,15.7752 29.8328,13.4842 29.8328,11.4872 L29.8328,11.0612 L29.1668,11.0612 C27.2218,11.0612 23.7068,11.1942 23.7068,13.6182 C23.7068,14.7102 24.5588,15.7752 26.2368,15.7752 M29.2198,9.1172 L29.8048,9.1172 L29.8048,8.8772 C29.8048,6.6672 28.5538,5.9212 26.8498,5.9212 C24.7718,5.9212 23.0938,7.2262 23.0938,7.2262 L22.0288,5.3352 C22.0288,5.3352 23.9728,3.7362 27.0618,3.7362 C30.4708,3.7362 32.3888,5.6012 32.3888,9.0102 L32.3888,17.5332 L29.9928,17.5332 L29.9928,16.2542 C29.9928,15.6422 30.0458,15.1892 30.0458,15.1892 L29.9928,15.1892 C29.9928,15.1892 28.8998,17.8532 25.6768,17.8532 C23.3608,17.8532 21.0968,16.4412 21.0968,13.7512 C21.0968,9.3032 26.9568,9.1172 29.2198,9.1172" id="Fill-20"></path>
                <path d="M35.5854,6.3201 L33.8274,6.3201 L33.8274,4.2431 L35.6654,4.2431 L35.6654,0.3541 L38.1694,0.3541 L38.1694,4.2431 L41.4184,4.2431 L41.4184,6.3201 L38.1694,6.3201 L38.1694,12.3131 C38.1694,15.0031 40.0604,15.3491 41.0454,15.3491 C41.4184,15.3491 41.6574,15.2961 41.6574,15.2961 L41.6574,17.5861 C41.6574,17.5861 41.2854,17.6391 40.7524,17.6391 C39.0214,17.6391 35.5854,17.1071 35.5854,12.6061 L35.5854,6.3201 Z" id="Fill-22"></path>
                <path d="M43.7221,4.0565 L46.3051,4.0565 L46.3051,12.0995 C46.3051,13.9645 46.6781,15.4555 48.8351,15.4555 C51.5781,15.4555 53.2031,13.0325 53.2031,10.3685 L53.2031,4.0565 L55.7861,4.0565 L55.7861,17.5335 L53.2831,17.5335 L53.2831,15.7485 C53.2831,15.1895 53.3361,14.7635 53.3361,14.7635 L53.2831,14.7635 C52.7241,16.0955 50.9661,17.8525 48.3291,17.8525 C45.2931,17.8525 43.7221,16.2545 43.7221,12.6855 L43.7221,4.0565 Z" id="Fill-24"></path>
                <path d="M59.063,14.0438 C59.063,14.0438 60.581,15.6148 62.925,15.6148 C64.043,15.6148 65.163,15.0298 65.163,13.9378 C65.163,11.4608 58.238,11.9668 58.238,7.5718 C58.238,5.1218 60.421,3.7368 63.111,3.7368 C66.068,3.7368 67.453,5.2288 67.453,5.2288 L66.414,7.1728 C66.414,7.1728 65.215,5.9748 63.084,5.9748 C61.966,5.9748 60.875,6.4538 60.875,7.6258 C60.875,10.0488 67.799,9.5168 67.799,13.9378 C67.799,16.1748 65.881,17.8528 62.925,17.8528 C59.623,17.8528 57.811,15.8818 57.811,15.8818 L59.063,14.0438 Z" id="Fill-26"></path>
            </g>
        </g>
    </g>
</svg>